<svg xmlns="http://www.w3.org/2000/svg" xmlns:xlink="http://www.w3.org/1999/xlink" version="1.1" data-diagram-type="ACTIVITY" style="width:1132px;height:1507px;background:#FFFFFF;" width="1132px" height="1507px" viewBox="0 0 1132 1507" zoomAndPan="magnify" preserveAspectRatio="none" contentStyleType="text/css"><?plantuml 1.2026.8?><defs/><g font-family="sans-serif" lengthAdjust="spacing"><g class="title" data-source-line="1"><text x="365.289" y="34.813" fill="#000" font-size="14" textLength="400.196" font-weight="700" font-family="'Microsoft YaHei'">活动图 · UC-03 提交预约申请（含 UC-04 校验、UC-05 扩展）</text></g><rect x="20" y="57.688" width="1085.773" height="23.757" fill="none" style="stroke:none;"/><rect x="20" y="57.688" width="313.353" height="1429.023" fill="#EBF3FF" style="stroke:#EBF3FF;stroke-width:1;"/><ellipse cx="211.353" cy="96.445" rx="10" ry="10" fill="#222" style="stroke:#222;stroke-width:1;"/><rect x="115.999" y="126.445" width="190.707" height="51.676" fill="#F1F1F1" style="stroke:#181818;stroke-width:0.5;" rx="12.5" ry="12.5"/><text x="125.999" y="149.143" fill="#000" font-size="12" textLength="94.453" font-family="'Microsoft YaHei'">进入"预约申请"页</text><text x="125.999" y="164.98" fill="#000" font-size="12" textLength="170.707" font-family="'Microsoft YaHei'">（可由 UC-02 或 UC-09 进入）</text><rect x="93.353" y="198.121" width="236" height="51.676" fill="#F1F1F1" style="stroke:#181818;stroke-width:0.5;" rx="12.5" ry="12.5"/><text x="103.353" y="220.818" fill="#000" font-size="12" textLength="216" font-family="'Microsoft YaHei'">填写预约信息：用途类别、时段、教室、</text><text x="103.353" y="236.656" fill="#000" font-size="12" textLength="144" font-family="'Microsoft YaHei'">使用人数、联系电话、备注</text><rect x="165.353" y="400.313" width="92" height="35.838" fill="#F1F1F1" style="stroke:#181818;stroke-width:0.5;" rx="12.5" ry="12.5"/><text x="175.353" y="423.01" fill="#000" font-size="12" textLength="72" font-family="'Microsoft YaHei'">上传证明材料</text><polygon points="142.697,269.797,280.009,269.797,292.009,281.797,280.009,293.797,142.697,293.797,130.697,281.797,142.697,269.797" fill="#F1F1F1" style="stroke:#181818;stroke-width:0.5;stroke-linejoin:miter;stroke-miterlimit:10;"/><text x="215.353" y="305.436" fill="#000" font-size="11" font-family="'Microsoft YaHei'">是</text><text x="142.697" y="286.177" fill="#000" font-size="11" textLength="137.312" font-family="'Microsoft YaHei'">用途为活动类或含校外人员?</text><polygon points="211.353,456.151,223.353,468.151,211.353,480.151,199.353,468.151,211.353,456.151" fill="#F1F1F1" style="stroke:#181818;stroke-width:0.5;stroke-linejoin:miter;stroke-miterlimit:10;"/><rect x="159.353" y="748.155" width="104" height="35.838" fill="#F1F1F1" style="stroke:#181818;stroke-width:0.5;" rx="12.5" ry="12.5"/><text x="169.353" y="770.852" fill="#000" font-size="12" textLength="84" font-family="'Microsoft YaHei'">调整教室或时段</text><polygon points="175.697,803.993,247.009,803.993,259.009,815.993,247.009,827.993,175.697,827.993,163.697,815.993,175.697,803.993" fill="#F1F1F1" style="stroke:#181818;stroke-width:0.5;stroke-linejoin:miter;stroke-miterlimit:10;"/><text x="215.353" y="839.632" fill="#000" font-size="11" font-family="'Microsoft YaHei'">是</text><text x="175.697" y="820.373" fill="#000" font-size="11" textLength="71.312" font-family="'Microsoft YaHei'">用户放弃预约?</text><rect x="26" y="1303.198" width="150.453" height="51.676" fill="#F1F1F1" style="stroke:#181818;stroke-width:0.5;" rx="12.5" ry="12.5"/><text x="36" y="1325.896" fill="#000" font-size="12" textLength="130.453" font-family="'Microsoft YaHei'">收到"已提交待审批"通知</text><text x="36" y="1341.733" fill="#000" font-size="12" textLength="84" font-family="'Microsoft YaHei'">并获取签到凭证</text><rect x="124.126" y="1408.874" width="174.453" height="35.838" fill="#F1F1F1" style="stroke:#181818;stroke-width:0.5;" rx="12.5" ry="12.5"/><text x="134.126" y="1431.571" fill="#000" font-size="12" textLength="154.453" font-family="'Microsoft YaHei'">在"我的预约"中查看预约状态</text><ellipse cx="211.353" cy="1475.712" rx="11" ry="11" fill="none" style="stroke:#222;stroke-width:1;"/><ellipse cx="211.353" cy="1475.712" rx="6" ry="6" fill="#222" style="stroke:#222;stroke-width:1;"/><line x1="20" y1="57.688" x2="20" y2="1486.712" style="stroke:#000;stroke-width:1.5;"/><rect x="417.976" y="319.056" width="183.008" height="51.676" fill="#F1F1F1" style="stroke:#181818;stroke-width:0.5;" rx="12.5" ry="12.5"/><text x="427.976" y="341.753" fill="#000" font-size="12" textLength="120" font-family="'Microsoft YaHei'">要求上传活动审批材料</text><text x="427.976" y="357.591" fill="#000" font-size="12" textLength="163.008" font-family="'Microsoft YaHei'">（UC-05 «extend»，BR-11）</text><rect x="411.17" y="500.151" width="196.619" height="99.189" fill="#F1F1F1" style="stroke:#181818;stroke-width:0.5;" rx="12.5" ry="12.5"/><text x="421.17" y="522.848" fill="#000" font-size="12" textLength="151.354" font-family="'Microsoft YaHei'">执行 UC-04 校验预约可用性</text><text x="421.17" y="538.686" fill="#000" font-size="12" textLength="128.619" font-family="'Microsoft YaHei'">· 时间窗与提前量 BR-03</text><text x="421.17" y="554.524" fill="#000" font-size="12" textLength="176.619" font-family="'Microsoft YaHei'">· 课表占用与已有预约冲突 BR-04</text><text x="421.17" y="570.362" fill="#000" font-size="12" textLength="68.619" font-family="'Microsoft YaHei'">· 容量 BR-06</text><text x="421.17" y="586.199" fill="#000" font-size="12" textLength="147.82" font-family="'Microsoft YaHei'">· 信用与在途数量 BR-07/08</text><rect x="433.479" y="676.479" width="152" height="51.676" fill="#F1F1F1" style="stroke:#181818;stroke-width:0.5;" rx="12.5" ry="12.5"/><text x="443.479" y="699.177" fill="#000" font-size="12" textLength="84" font-family="'Microsoft YaHei'">返回冲突原因，</text><text x="443.479" y="715.014" fill="#000" font-size="12" textLength="132" font-family="'Microsoft YaHei'">推荐可用时段或其他教室</text><rect x="427.479" y="853.252" width="164" height="35.838" fill="#F1F1F1" style="stroke:#181818;stroke-width:0.5;" rx="12.5" ry="12.5"/><text x="437.479" y="875.949" fill="#000" font-size="12" textLength="144" font-family="'Microsoft YaHei'">终止本次预约，不产生记录</text><ellipse cx="509.479" cy="930.009" rx="11" ry="11" fill="none" style="stroke:#222;stroke-width:1;"/><ellipse cx="509.479" cy="930.009" rx="6" ry="6" fill="#222" style="stroke:#222;stroke-width:1;"/><rect x="417.803" y="983.009" width="183.354" height="35.838" fill="#F1F1F1" style="stroke:#181818;stroke-width:0.5;" rx="12.5" ry="12.5"/><text x="427.803" y="1005.706" fill="#000" font-size="12" textLength="163.354" font-family="'Microsoft YaHei'">对新组合重新执行 UC-04 校验</text><polygon points="479.323,619.34,539.635,619.34,551.635,631.34,539.635,643.34,479.323,643.34,467.323,631.34,479.323,619.34" fill="#F1F1F1" style="stroke:#181818;stroke-width:0.5;stroke-linejoin:miter;stroke-miterlimit:10;"/><text x="513.479" y="654.979" fill="#000" font-size="11" font-family="'Microsoft YaHei'">是</text><text x="479.323" y="635.72" fill="#000" font-size="11" textLength="60.312" font-family="'Microsoft YaHei'">校验不通过?</text><text x="456.323" y="628.461" fill="#000" font-size="11" font-family="'Microsoft YaHei'">否</text><rect x="381.639" y="1060.847" width="255.682" height="51.676" fill="#F1F1F1" style="stroke:#181818;stroke-width:0.5;" rx="12.5" ry="12.5"/><text x="391.639" y="1083.544" fill="#000" font-size="12" textLength="168" font-family="'Microsoft YaHei'">事务内占用时段并写入预约记录</text><text x="391.639" y="1099.382" fill="#000" font-size="12" textLength="235.682" font-family="'Microsoft YaHei'">（教室+日期唯一约束、请求幂等 NFR-02）</text><polygon points="457.323,1132.522,561.635,1132.522,573.635,1144.522,561.635,1156.522,457.323,1156.522,445.323,1144.522,457.323,1132.522" fill="#F1F1F1" style="stroke:#181818;stroke-width:0.5;stroke-linejoin:miter;stroke-miterlimit:10;"/><text x="457.323" y="1148.903" fill="#000" font-size="11" textLength="104.312" font-family="'Microsoft YaHei'">预约类别为需审批类?</text><text x="434.323" y="1141.644" fill="#000" font-size="11" font-family="'Microsoft YaHei'">是</text><text x="573.635" y="1141.644" fill="#000" font-size="11" font-family="'Microsoft YaHei'">否</text><rect x="339.353" y="1176.522" width="120.002" height="35.838" fill="#F1F1F1" style="stroke:#181818;stroke-width:0.5;" rx="12.5" ry="12.5"/><text x="349.353" y="1199.22" fill="#000" font-size="12" textLength="100.002" font-family="'Microsoft YaHei'">预约状态 = 待审批</text><rect x="559.604" y="1176.522" width="120.002" height="35.838" fill="#F1F1F1" style="stroke:#181818;stroke-width:0.5;" rx="12.5" ry="12.5"/><text x="569.604" y="1199.22" fill="#000" font-size="12" textLength="100.002" font-family="'Microsoft YaHei'">预约状态 = 已生效</text><polygon points="509.479,1364.874,521.479,1376.874,509.479,1388.874,497.479,1376.874,509.479,1364.874" fill="#F1F1F1" style="stroke:#181818;stroke-width:0.5;stroke-linejoin:miter;stroke-miterlimit:10;"/><line x1="333.353" y1="57.688" x2="333.353" y2="1486.712" style="stroke:#000;stroke-width:1.5;"/><rect x="689.606" y="1232.36" width="236.252" height="35.838" fill="#F1F1F1" style="stroke:#181818;stroke-width:0.5;" rx="12.5" ry="12.5"/><text x="699.606" y="1255.058" fill="#000" font-size="12" textLength="216.252" font-family="'Microsoft YaHei'">向教室管理员推送待审批待办（UC-17）</text><rect x="935.858" y="1232.36" width="164.252" height="51.676" fill="#F1F1F1" style="stroke:#181818;stroke-width:0.5;" rx="12.5" ry="12.5"/><text x="945.858" y="1255.058" fill="#000" font-size="12" textLength="118.453" font-family="'Microsoft YaHei'">向用户推送"预约成功"</text><text x="945.858" y="1270.896" fill="#000" font-size="12" textLength="144.252" font-family="'Microsoft YaHei'">并附签到时间窗（UC-17）</text><line x1="683.606" y1="57.688" x2="683.606" y2="1486.712" style="stroke:#000;stroke-width:1.5;"/><line x1="1104.11" y1="57.688" x2="1104.11" y2="1486.712" style="stroke:#000;stroke-width:1.5;"/><line x1="211.353" y1="106.445" x2="211.353" y2="126.445" style="stroke:#181818;stroke-width:1;"/><polygon points="207.353,116.445,211.353,126.445,215.353,116.445,211.353,120.445" fill="#181818" style="stroke:#181818;stroke-width:1;stroke-linejoin:miter;stroke-miterlimit:10;"/><line x1="211.353" y1="178.121" x2="211.353" y2="198.121" style="stroke:#181818;stroke-width:1;"/><polygon points="207.353,188.121,211.353,198.121,215.353,188.121,211.353,192.121" fill="#181818" style="stroke:#181818;stroke-width:1;stroke-linejoin:miter;stroke-miterlimit:10;"/><line x1="130.697" y1="281.797" x2="109.849" y2="281.797" style="stroke:#181818;stroke-width:1;"/><polygon points="105.849,370.313,109.849,380.313,113.849,370.313,109.849,374.313" fill="#181818" style="stroke:#181818;stroke-width:1;stroke-linejoin:miter;stroke-miterlimit:10;"/><line x1="109.849" y1="281.797" x2="109.849" y2="468.151" style="stroke:#181818;stroke-width:1;"/><line x1="109.849" y1="468.151" x2="199.353" y2="468.151" style="stroke:#181818;stroke-width:1;"/><polygon points="189.353,464.151,199.353,468.151,189.353,472.151,193.353,468.151" fill="#181818" style="stroke:#181818;stroke-width:1;stroke-linejoin:miter;stroke-miterlimit:10;"/><line x1="211.353" y1="436.151" x2="211.353" y2="456.151" style="stroke:#181818;stroke-width:1;"/><polygon points="207.353,446.151,211.353,456.151,215.353,446.151,211.353,450.151" fill="#181818" style="stroke:#181818;stroke-width:1;stroke-linejoin:miter;stroke-miterlimit:10;"/><line x1="211.353" y1="249.797" x2="211.353" y2="269.797" style="stroke:#181818;stroke-width:1;"/><polygon points="207.353,259.797,211.353,269.797,215.353,259.797,211.353,263.797" fill="#181818" style="stroke:#181818;stroke-width:1;stroke-linejoin:miter;stroke-miterlimit:10;"/><line x1="259.009" y1="815.993" x2="509.479" y2="815.993" style="stroke:#181818;stroke-width:1;"/><polygon points="505.479,899.09,509.479,909.09,513.479,899.09,509.479,903.09" fill="#181818" style="stroke:#181818;stroke-width:1;stroke-linejoin:miter;stroke-miterlimit:10;"/><line x1="509.479" y1="815.993" x2="509.479" y2="983.009" style="stroke:#181818;stroke-width:1;"/><polygon points="505.479,973.009,509.479,983.009,513.479,973.009,509.479,977.009" fill="#181818" style="stroke:#181818;stroke-width:1;stroke-linejoin:miter;stroke-miterlimit:10;"/><line x1="211.353" y1="783.993" x2="211.353" y2="803.993" style="stroke:#181818;stroke-width:1;"/><polygon points="207.353,793.993,211.353,803.993,215.353,793.993,211.353,797.993" fill="#181818" style="stroke:#181818;stroke-width:1;stroke-linejoin:miter;stroke-miterlimit:10;"/><line x1="211.353" y1="1444.712" x2="211.353" y2="1464.712" style="stroke:#181818;stroke-width:1;"/><polygon points="207.353,1454.712,211.353,1464.712,215.353,1454.712,211.353,1458.712" fill="#181818" style="stroke:#181818;stroke-width:1;stroke-linejoin:miter;stroke-miterlimit:10;"/><line x1="509.479" y1="889.09" x2="509.479" y2="919.009" style="stroke:#181818;stroke-width:1;"/><polygon points="505.479,909.009,509.479,919.009,513.479,909.009,509.479,913.009" fill="#181818" style="stroke:#181818;stroke-width:1;stroke-linejoin:miter;stroke-miterlimit:10;"/><line x1="509.479" y1="643.34" x2="509.479" y2="676.479" style="stroke:#181818;stroke-width:1;"/><polygon points="505.479,666.479,509.479,676.479,513.479,666.479,509.479,670.479" fill="#181818" style="stroke:#181818;stroke-width:1;stroke-linejoin:miter;stroke-miterlimit:10;"/><line x1="509.479" y1="1018.847" x2="509.479" y2="1028.847" style="stroke:#181818;stroke-width:1;"/><line x1="509.479" y1="1028.847" x2="625.479" y2="1028.847" style="stroke:#181818;stroke-width:1;"/><polygon points="621.479,838.074,625.479,828.074,629.479,838.074,625.479,834.074" fill="#181818" style="stroke:#181818;stroke-width:1;stroke-linejoin:miter;stroke-miterlimit:10;"/><line x1="625.479" y1="631.34" x2="625.479" y2="1028.847" style="stroke:#181818;stroke-width:1;"/><line x1="625.479" y1="631.34" x2="551.635" y2="631.34" style="stroke:#181818;stroke-width:1;"/><polygon points="561.635,627.34,551.635,631.34,561.635,635.34,557.635,631.34" fill="#181818" style="stroke:#181818;stroke-width:1;stroke-linejoin:miter;stroke-miterlimit:10;"/><line x1="467.323" y1="631.34" x2="405.479" y2="631.34" style="stroke:#181818;stroke-width:1;"/><polygon points="401.479,824.074,405.479,834.074,409.479,824.074,405.479,828.074" fill="#181818" style="stroke:#181818;stroke-width:1;stroke-linejoin:miter;stroke-miterlimit:10;"/><line x1="405.479" y1="631.34" x2="405.479" y2="1040.847" style="stroke:#181818;stroke-width:1;"/><line x1="405.479" y1="1040.847" x2="509.479" y2="1040.847" style="stroke:#181818;stroke-width:1;"/><line x1="509.479" y1="1040.847" x2="509.479" y2="1060.847" style="stroke:#181818;stroke-width:1;"/><polygon points="505.479,1050.847,509.479,1060.847,513.479,1050.847,509.479,1054.847" fill="#181818" style="stroke:#181818;stroke-width:1;stroke-linejoin:miter;stroke-miterlimit:10;"/><line x1="509.479" y1="599.34" x2="509.479" y2="619.34" style="stroke:#181818;stroke-width:1;"/><polygon points="505.479,609.34,509.479,619.34,513.479,609.34,509.479,613.34" fill="#181818" style="stroke:#181818;stroke-width:1;stroke-linejoin:miter;stroke-miterlimit:10;"/><line x1="445.323" y1="1144.522" x2="399.354" y2="1144.522" style="stroke:#181818;stroke-width:1;"/><line x1="399.354" y1="1144.522" x2="399.354" y2="1176.522" style="stroke:#181818;stroke-width:1;"/><polygon points="395.354,1166.522,399.354,1176.522,403.354,1166.522,399.354,1170.522" fill="#181818" style="stroke:#181818;stroke-width:1;stroke-linejoin:miter;stroke-miterlimit:10;"/><line x1="573.635" y1="1144.522" x2="619.605" y2="1144.522" style="stroke:#181818;stroke-width:1;"/><line x1="619.605" y1="1144.522" x2="619.605" y2="1176.522" style="stroke:#181818;stroke-width:1;"/><polygon points="615.605,1166.522,619.605,1176.522,623.605,1166.522,619.605,1170.522" fill="#181818" style="stroke:#181818;stroke-width:1;stroke-linejoin:miter;stroke-miterlimit:10;"/><line x1="509.479" y1="1112.522" x2="509.479" y2="1132.522" style="stroke:#181818;stroke-width:1;"/><polygon points="505.479,1122.522,509.479,1132.522,513.479,1122.522,509.479,1126.522" fill="#181818" style="stroke:#181818;stroke-width:1;stroke-linejoin:miter;stroke-miterlimit:10;"/><line x1="509.479" y1="370.732" x2="509.479" y2="385.313" style="stroke:#181818;stroke-width:1;"/><line x1="509.479" y1="385.313" x2="211.353" y2="385.313" style="stroke:#181818;stroke-width:1;"/><line x1="211.353" y1="385.313" x2="211.353" y2="400.313" style="stroke:#181818;stroke-width:1;"/><polygon points="207.353,390.313,211.353,400.313,215.353,390.313,211.353,394.313" fill="#181818" style="stroke:#181818;stroke-width:1;stroke-linejoin:miter;stroke-miterlimit:10;"/><line x1="211.353" y1="293.797" x2="211.353" y2="306.426" style="stroke:#181818;stroke-width:1;"/><line x1="211.353" y1="306.426" x2="509.479" y2="306.426" style="stroke:#181818;stroke-width:1;"/><line x1="509.479" y1="306.426" x2="509.479" y2="319.056" style="stroke:#181818;stroke-width:1;"/><polygon points="505.479,309.056,509.479,319.056,513.479,309.056,509.479,313.056" fill="#181818" style="stroke:#181818;stroke-width:1;stroke-linejoin:miter;stroke-miterlimit:10;"/><line x1="211.353" y1="480.151" x2="211.353" y2="485.151" style="stroke:#181818;stroke-width:1;"/><line x1="211.353" y1="485.151" x2="509.479" y2="485.151" style="stroke:#181818;stroke-width:1;"/><line x1="509.479" y1="485.151" x2="509.479" y2="500.151" style="stroke:#181818;stroke-width:1;"/><polygon points="505.479,490.151,509.479,500.151,513.479,490.151,509.479,494.151" fill="#181818" style="stroke:#181818;stroke-width:1;stroke-linejoin:miter;stroke-miterlimit:10;"/><line x1="509.479" y1="728.155" x2="509.479" y2="733.155" style="stroke:#181818;stroke-width:1;"/><line x1="509.479" y1="733.155" x2="211.353" y2="733.155" style="stroke:#181818;stroke-width:1;"/><line x1="211.353" y1="733.155" x2="211.353" y2="748.155" style="stroke:#181818;stroke-width:1;"/><polygon points="207.353,738.155,211.353,748.155,215.353,738.155,211.353,742.155" fill="#181818" style="stroke:#181818;stroke-width:1;stroke-linejoin:miter;stroke-miterlimit:10;"/><line x1="211.353" y1="827.993" x2="211.353" y2="840.622" style="stroke:#181818;stroke-width:1;"/><line x1="211.353" y1="840.622" x2="509.479" y2="840.622" style="stroke:#181818;stroke-width:1;"/><line x1="509.479" y1="840.622" x2="509.479" y2="853.252" style="stroke:#181818;stroke-width:1;"/><polygon points="505.479,843.252,509.479,853.252,513.479,843.252,509.479,847.252" fill="#181818" style="stroke:#181818;stroke-width:1;stroke-linejoin:miter;stroke-miterlimit:10;"/><line x1="399.354" y1="1212.36" x2="399.354" y2="1217.36" style="stroke:#181818;stroke-width:1;"/><line x1="399.354" y1="1217.36" x2="807.732" y2="1217.36" style="stroke:#181818;stroke-width:1;"/><line x1="807.732" y1="1217.36" x2="807.732" y2="1232.36" style="stroke:#181818;stroke-width:1;"/><polygon points="803.732,1222.36,807.732,1232.36,811.732,1222.36,807.732,1226.36" fill="#181818" style="stroke:#181818;stroke-width:1;stroke-linejoin:miter;stroke-miterlimit:10;"/><line x1="807.732" y1="1268.198" x2="807.732" y2="1285.698" style="stroke:#181818;stroke-width:1;"/><line x1="807.732" y1="1285.698" x2="101.227" y2="1285.698" style="stroke:#181818;stroke-width:1;"/><line x1="101.227" y1="1285.698" x2="101.227" y2="1303.198" style="stroke:#181818;stroke-width:1;"/><polygon points="97.227,1293.198,101.227,1303.198,105.227,1293.198,101.227,1297.198" fill="#181818" style="stroke:#181818;stroke-width:1;stroke-linejoin:miter;stroke-miterlimit:10;"/><line x1="619.605" y1="1212.36" x2="619.605" y2="1217.36" style="stroke:#181818;stroke-width:1;"/><line x1="619.605" y1="1217.36" x2="1017.984" y2="1217.36" style="stroke:#181818;stroke-width:1;"/><line x1="1017.984" y1="1217.36" x2="1017.984" y2="1232.36" style="stroke:#181818;stroke-width:1;"/><polygon points="1013.984,1222.36,1017.984,1232.36,1021.984,1222.36,1017.984,1226.36" fill="#181818" style="stroke:#181818;stroke-width:1;stroke-linejoin:miter;stroke-miterlimit:10;"/><line x1="101.227" y1="1354.874" x2="101.227" y2="1376.874" style="stroke:#181818;stroke-width:1;"/><line x1="101.227" y1="1376.874" x2="497.479" y2="1376.874" style="stroke:#181818;stroke-width:1;"/><polygon points="487.479,1372.874,497.479,1376.874,487.479,1380.874,491.479,1376.874" fill="#181818" style="stroke:#181818;stroke-width:1;stroke-linejoin:miter;stroke-miterlimit:10;"/><line x1="1017.984" y1="1284.036" x2="1017.984" y2="1376.874" style="stroke:#181818;stroke-width:1;"/><line x1="1017.984" y1="1376.874" x2="521.479" y2="1376.874" style="stroke:#181818;stroke-width:1;"/><polygon points="531.479,1372.874,521.479,1376.874,531.479,1380.874,527.479,1376.874" fill="#181818" style="stroke:#181818;stroke-width:1;stroke-linejoin:miter;stroke-miterlimit:10;"/><line x1="509.479" y1="1388.874" x2="509.479" y2="1393.874" style="stroke:#181818;stroke-width:1;"/><line x1="509.479" y1="1393.874" x2="211.353" y2="1393.874" style="stroke:#181818;stroke-width:1;"/><line x1="211.353" y1="1393.874" x2="211.353" y2="1408.874" style="stroke:#181818;stroke-width:1;"/><polygon points="207.353,1398.874,211.353,1408.874,215.353,1398.874,211.353,1402.874" fill="#181818" style="stroke:#181818;stroke-width:1;stroke-linejoin:miter;stroke-miterlimit:10;"/><text x="140.676" y="76.734" fill="#000" font-size="18" textLength="72" font-family="'Microsoft YaHei'">预约用户</text><text x="490.479" y="76.734" fill="#000" font-size="18" textLength="36" font-family="'Microsoft YaHei'">系统</text><text x="839.858" y="76.734" fill="#000" font-size="18" textLength="108" font-family="'Microsoft YaHei'">消息推送服务</text><?plantuml-src XLHBRzj64BxpLooKYuqYY1sdJIkXA92YGY_DeK0E1NmHOYacub21nI8zw20bjaKfbam3bFoI8pFmGxKZKNxf7GdmNobtbZpvBtIuInbMuIQtMUxCx3VVDnzLMLs84hZeqLoLxWp8LOiy-_d-r0o1DTtkxhiVbrZta1ddZjMwxcjKF-7NZmZicUxnwZ-fj7Vyba3sRtfQlEvdfSHBMNaTMOoy8dFHMEJF1JKSLzIdaLTH4lXDVhuOJyHZAlaZycjK3jpAJSn7vk9lPEK5YKKM4b59IjxxvKbu9XnEZX1KGMibfOGQMLIbe3FSeSi7WTle0gvvEQju6DSiPfnoc0y9Q2KU_K142I8CIK5gdj2LBL5j3qr8MzVzRNp2JHdij4Ur4vmBDffGl_I2uXQjxsCmgzYVXvXbTxjGRE079ssmynupBXrh5uzqFmFdrP0anyY4Q6Qtku9Px8f8a3saZUwNi0DTt_nfagZpKOLCmAOrAH6Iz9hrAaaCWyvX6axVsksStT_pnQcRaEt0hWwbBJwd8Fxg9FgN6bNchdhN_TKdlz-VdkOZOhTnuh2dwEPOQTWiY3uX2Ilb6B8zUZe8sIF7N1qJMJJYj5OXTIJXYY0vxiO5EzwmsmLS59hDkvarWizFpNZNZZLmp2hDxtbijGkqTGRbhDzcvOmTftdg8o-LrZkZqk-yCyhX5vKz1f7eqVNZ1rFVXoJfpRoC2piXeDdjl9lQTeOPv59EtCtaqA0x7yIpj52XEtj8rAm2XQgJr_sXkDIUGCjDkrSIWj_DeTDu1yKBaO45ej9BzKN7F306jFzELFvNuZ5es8xrDAXzXF8d-6IA2WI7GzdT8sPKd7g3VYw6U6f2ZR_6GEWrFY6rEb1giDuIrJKtayVu3X6vr3vtL3-SlAsvtNrFSoPTMHQAYQ5efuaUGSi8N08BNpmn_JUmSG3b2ZKikvt21DYjU9QmMhYtjFEMrRBaQHXbUyZtaPl2PvCx3AtXbbDYgV7BbxpWb-MQa4gJ7maTB8iohX0qDRGlgkcYKyjvd4DmegyBcAnkCdq5tIPIRegz8FT1s6ZwyVzw1emcrHe1RuFv__2cFe1xnoe7imhov1HQTAt4QWDCfPaQEWpPnh-Op_INfscTeT9GrBuoZRzR_CR_xu6cqrmbm26uMqlY_HjdZeqsilduV47qM02qTRQz92u2Thi6bGDMVdyRPKZobkzV?></g></svg>