<svg xmlns="http://www.w3.org/2000/svg" xmlns:xlink="http://www.w3.org/1999/xlink" version="1.1" data-diagram-type="ACTIVITY" style="width:1631px;height:904px;background:#FFFFFF;" width="1631px" height="904px" viewBox="0 0 1631 904" zoomAndPan="magnify" preserveAspectRatio="none" contentStyleType="text/css"><?plantuml 1.2026.8?><defs/><g font-family="sans-serif" lengthAdjust="spacing"><g class="title" data-source-line="1"><text x="636.736" y="34.813" fill="#000" font-size="14" textLength="356.521" font-weight="700" font-family="'Microsoft YaHei'">活动图 · UC-10 签到核验 与 UC-11 超时未签到自动释放</text></g><rect x="20" y="57.688" width="1584.994" height="23.757" fill="none" style="stroke:none;"/><ellipse cx="533.244" cy="96.445" rx="10" ry="10" fill="#222" style="stroke:#222;stroke-width:1;"/><rect x="422.067" y="126.445" width="222.354" height="51.676" fill="#F1F1F1" style="stroke:#181818;stroke-width:0.5;" rx="12.5" ry="12.5"/><text x="432.067" y="149.143" fill="#000" font-size="12" textLength="144" font-family="'Microsoft YaHei'">预约生效，进入签到时间窗</text><text x="432.067" y="164.98" fill="#000" font-size="12" textLength="202.354" font-family="'Microsoft YaHei'">（开始前 15 分钟 ~ 开始后 10 分钟）</text><rect x="26" y="198.121" width="1014.487" height="6" fill="#555" style="stroke:#555;stroke-width:1;" rx="2.5" ry="2.5"/><rect x="171.439" y="365.635" width="219.354" height="51.676" fill="#F1F1F1" style="stroke:#181818;stroke-width:0.5;" rx="12.5" ry="12.5"/><text x="181.439" y="388.332" fill="#000" font-size="12" textLength="199.354" font-family="'Microsoft YaHei'">执行 UC-04 校验：预约归属、状态、</text><text x="181.439" y="404.17" fill="#000" font-size="12" textLength="192" font-family="'Microsoft YaHei'">签到时间窗、教室匹配、凭证有效性</text><polygon points="245.46,452.311,316.772,452.311,328.772,464.311,316.772,476.311,245.46,476.311,233.46,464.311,245.46,452.311" fill="#F1F1F1" style="stroke:#181818;stroke-width:0.5;stroke-linejoin:miter;stroke-miterlimit:10;"/><text x="245.46" y="468.691" fill="#000" font-size="11" textLength="71.312" font-family="'Microsoft YaHei'">凭证是否有效?</text><text x="222.46" y="461.432" fill="#000" font-size="11" font-family="'Microsoft YaHei'">是</text><text x="328.772" y="461.432" fill="#000" font-size="11" font-family="'Microsoft YaHei'">否</text><rect x="50" y="486.311" width="216.002" height="35.838" fill="#F1F1F1" style="stroke:#181818;stroke-width:0.5;" rx="12.5" ry="12.5"/><text x="60" y="509.008" fill="#000" font-size="12" textLength="196.002" font-family="'Microsoft YaHei'">记录签到时间与方式，状态 = 使用中</text><rect x="38" y="557.148" width="240.002" height="35.838" fill="#F1F1F1" style="stroke:#181818;stroke-width:0.5;" rx="12.5" ry="12.5"/><text x="48" y="579.846" fill="#000" font-size="12" textLength="220.002" font-family="'Microsoft YaHei'">到达结束时间后状态 = 已完成并释放时段</text><rect x="298.002" y="486.311" width="212.457" height="51.676" fill="#F1F1F1" style="stroke:#181818;stroke-width:0.5;" rx="12.5" ry="12.5"/><text x="308.002" y="509.008" fill="#000" font-size="12" textLength="96" font-family="'Microsoft YaHei'">提示签到失败原因</text><text x="308.002" y="524.846" fill="#000" font-size="12" textLength="192.457" font-family="'Microsoft YaHei'">（超时 / 教室不匹配 / 凭证已作废）</text><rect x="346.23" y="622.245" width="116" height="35.838" fill="#F1F1F1" style="stroke:#181818;stroke-width:0.5;" rx="12.5" ry="12.5"/><text x="356.23" y="644.943" fill="#000" font-size="12" textLength="96" font-family="'Microsoft YaHei'">引导用户重新预约</text><polygon points="374.074,572.986,434.386,572.986,446.386,584.986,434.386,596.986,374.074,596.986,362.074,584.986,374.074,572.986" fill="#F1F1F1" style="stroke:#181818;stroke-width:0.5;stroke-linejoin:miter;stroke-miterlimit:10;"/><text x="408.23" y="608.625" fill="#000" font-size="11" font-family="'Microsoft YaHei'">是</text><text x="374.074" y="589.366" fill="#000" font-size="11" textLength="60.312" font-family="'Microsoft YaHei'">是否已超时?</text><polygon points="404.23,683.342,416.23,695.342,404.23,707.342,392.23,695.342,404.23,683.342" fill="#F1F1F1" style="stroke:#181818;stroke-width:0.5;stroke-linejoin:miter;stroke-miterlimit:10;"/><polygon points="281.116,713.342,293.116,725.342,281.116,737.342,269.116,725.342,281.116,713.342" fill="#F1F1F1" style="stroke:#181818;stroke-width:0.5;stroke-linejoin:miter;stroke-miterlimit:10;"/><rect x="682.948" y="279.959" width="233.176" height="51.676" fill="#F1F1F1" style="stroke:#181818;stroke-width:0.5;" rx="12.5" ry="12.5"/><text x="692.948" y="302.656" fill="#000" font-size="12" textLength="178.453" font-family="'Microsoft YaHei'">查询"已生效"且超过签到截止时间</text><text x="692.948" y="318.494" fill="#000" font-size="12" textLength="213.176" font-family="'Microsoft YaHei'">（开始后 10 分钟）仍无签到记录的预约</text><polygon points="752.88,358.635,846.192,358.635,858.192,370.635,846.192,382.635,752.88,382.635,740.88,370.635,752.88,358.635" fill="#F1F1F1" style="stroke:#181818;stroke-width:0.5;stroke-linejoin:miter;stroke-miterlimit:10;"/><text x="752.88" y="375.015" fill="#000" font-size="11" textLength="93.312" font-family="'Microsoft YaHei'">是否存在超时预约?</text><text x="729.88" y="367.756" fill="#000" font-size="11" font-family="'Microsoft YaHei'">是</text><text x="858.192" y="367.756" fill="#000" font-size="11" font-family="'Microsoft YaHei'">否</text><rect x="583.358" y="402.635" width="186.453" height="51.676" fill="#F1F1F1" style="stroke:#181818;stroke-width:0.5;" rx="12.5" ry="12.5"/><text x="593.358" y="425.332" fill="#000" font-size="12" textLength="166.453" font-family="'Microsoft YaHei'">事务内将状态置为"已自动释放"</text><text x="593.358" y="441.17" fill="#000" font-size="12" textLength="84" font-family="'Microsoft YaHei'">并释放教室时段</text><rect x="570.459" y="489.311" width="212.252" height="35.838" fill="#F1F1F1" style="stroke:#181818;stroke-width:0.5;" rx="12.5" ry="12.5"/><text x="580.459" y="512.008" fill="#000" font-size="12" textLength="192.252" font-family="'Microsoft YaHei'">生成违约记录并重算信用（UC-12）</text><rect x="578.683" y="609.407" width="195.805" height="35.838" fill="#F1F1F1" style="stroke:#181818;stroke-width:0.5;" rx="12.5" ry="12.5"/><text x="588.683" y="632.105" fill="#000" font-size="12" textLength="175.805" font-family="'Microsoft YaHei'">设置 14 天预约限制期（BR-07）</text><polygon points="624.429,560.148,728.741,560.148,740.741,572.148,728.741,584.148,624.429,584.148,612.429,572.148,624.429,560.148" fill="#F1F1F1" style="stroke:#181818;stroke-width:0.5;stroke-linejoin:miter;stroke-miterlimit:10;"/><text x="680.585" y="595.788" fill="#000" font-size="11" font-family="'Microsoft YaHei'">是</text><text x="624.429" y="576.529" fill="#000" font-size="11" textLength="104.312" font-family="'Microsoft YaHei'">违约累计是否达阈值?</text><polygon points="676.585,670.504,688.585,682.504,676.585,694.504,664.585,682.504,676.585,670.504" fill="#F1F1F1" style="stroke:#181818;stroke-width:0.5;stroke-linejoin:miter;stroke-miterlimit:10;"/><rect x="816.487" y="402.635" width="212" height="35.838" fill="#F1F1F1" style="stroke:#181818;stroke-width:0.5;" rx="12.5" ry="12.5"/><text x="826.487" y="425.332" fill="#000" font-size="12" textLength="192" font-family="'Microsoft YaHei'">本次扫描无待处理项，记录执行日志</text><polygon points="799.536,791.18,811.536,803.18,799.536,815.18,787.536,803.18,799.536,791.18" fill="#F1F1F1" style="stroke:#181818;stroke-width:0.5;stroke-linejoin:miter;stroke-miterlimit:10;"/><rect x="26" y="835.18" width="1014.487" height="6" fill="#555" style="stroke:#555;stroke-width:1;" rx="2.5" ry="2.5"/><ellipse cx="533.244" cy="872.18" rx="11" ry="11" fill="none" style="stroke:#222;stroke-width:1;"/><ellipse cx="533.244" cy="872.18" rx="6" ry="6" fill="#222" style="stroke:#222;stroke-width:1;"/><line x1="20" y1="57.688" x2="20" y2="883.18" style="stroke:#000;stroke-width:1.5;"/><rect x="1050.487" y="286.959" width="150.453" height="51.676" fill="#F1F1F1" style="stroke:#181818;stroke-width:0.5;" rx="12.5" ry="12.5"/><text x="1060.487" y="309.656" fill="#000" font-size="12" textLength="130.453" font-family="'Microsoft YaHei'">在预约详情页点击"签到"</text><text x="1060.487" y="325.494" fill="#000" font-size="12" textLength="96" font-family="'Microsoft YaHei'">或扫描教室二维码</text><line x1="1044.487" y1="57.688" x2="1044.487" y2="883.18" style="stroke:#000;stroke-width:1.5;"/><rect x="1210.94" y="224.121" width="142.139" height="35.838" fill="#F1F1F1" style="stroke:#181818;stroke-width:0.5;" rx="12.5" ry="12.5"/><text x="1220.94" y="246.818" fill="#000" font-size="12" textLength="122.139" font-family="'Microsoft YaHei'">每 5 分钟触发扫描任务</text><line x1="1204.94" y1="57.688" x2="1204.94" y2="883.18" style="stroke:#000;stroke-width:1.5;"/><rect x="1363.079" y="729.504" width="236.252" height="51.676" fill="#F1F1F1" style="stroke:#181818;stroke-width:0.5;" rx="12.5" ry="12.5"/><text x="1373.079" y="752.202" fill="#000" font-size="12" textLength="210.457" font-family="'Microsoft YaHei'">推送"预约已释放 + 违约 + 限制"通知，</text><text x="1373.079" y="768.04" fill="#000" font-size="12" textLength="216.252" font-family="'Microsoft YaHei'">并向教室管理员发送当日汇总（UC-17）</text><line x1="1357.079" y1="57.688" x2="1357.079" y2="883.18" style="stroke:#000;stroke-width:1.5;"/><line x1="1603.331" y1="57.688" x2="1603.331" y2="883.18" style="stroke:#000;stroke-width:1.5;"/><line x1="533.244" y1="106.445" x2="533.244" y2="126.445" style="stroke:#181818;stroke-width:1;"/><polygon points="529.244,116.445,533.244,126.445,537.244,116.445,533.244,120.445" fill="#181818" style="stroke:#181818;stroke-width:1;stroke-linejoin:miter;stroke-miterlimit:10;"/><line x1="158.001" y1="522.148" x2="158.001" y2="557.148" style="stroke:#181818;stroke-width:1;"/><polygon points="154.001,547.148,158.001,557.148,162.001,547.148,158.001,551.148" fill="#181818" style="stroke:#181818;stroke-width:1;stroke-linejoin:miter;stroke-miterlimit:10;"/><line x1="404.23" y1="596.986" x2="404.23" y2="622.245" style="stroke:#181818;stroke-width:1;"/><polygon points="400.23,612.245,404.23,622.245,408.23,612.245,404.23,616.245" fill="#181818" style="stroke:#181818;stroke-width:1;stroke-linejoin:miter;stroke-miterlimit:10;"/><line x1="446.386" y1="584.986" x2="472.23" y2="584.986" style="stroke:#181818;stroke-width:1;"/><polygon points="468.23,630.164,472.23,640.164,476.23,630.164,472.23,634.164" fill="#181818" style="stroke:#181818;stroke-width:1;stroke-linejoin:miter;stroke-miterlimit:10;"/><line x1="472.23" y1="584.986" x2="472.23" y2="695.342" style="stroke:#181818;stroke-width:1;"/><line x1="472.23" y1="695.342" x2="416.23" y2="695.342" style="stroke:#181818;stroke-width:1;"/><polygon points="426.23,691.342,416.23,695.342,426.23,699.342,422.23,695.342" fill="#181818" style="stroke:#181818;stroke-width:1;stroke-linejoin:miter;stroke-miterlimit:10;"/><line x1="404.23" y1="658.083" x2="404.23" y2="683.342" style="stroke:#181818;stroke-width:1;"/><polygon points="400.23,673.342,404.23,683.342,408.23,673.342,404.23,677.342" fill="#181818" style="stroke:#181818;stroke-width:1;stroke-linejoin:miter;stroke-miterlimit:10;"/><line x1="404.23" y1="537.986" x2="404.23" y2="572.986" style="stroke:#181818;stroke-width:1;"/><polygon points="400.23,562.986,404.23,572.986,408.23,562.986,404.23,566.986" fill="#181818" style="stroke:#181818;stroke-width:1;stroke-linejoin:miter;stroke-miterlimit:10;"/><line x1="233.46" y1="464.311" x2="158.001" y2="464.311" style="stroke:#181818;stroke-width:1;"/><line x1="158.001" y1="464.311" x2="158.001" y2="486.311" style="stroke:#181818;stroke-width:1;"/><polygon points="154.001,476.311,158.001,486.311,162.001,476.311,158.001,480.311" fill="#181818" style="stroke:#181818;stroke-width:1;stroke-linejoin:miter;stroke-miterlimit:10;"/><line x1="328.772" y1="464.311" x2="404.23" y2="464.311" style="stroke:#181818;stroke-width:1;"/><line x1="404.23" y1="464.311" x2="404.23" y2="486.311" style="stroke:#181818;stroke-width:1;"/><polygon points="400.23,476.311,404.23,486.311,408.23,476.311,404.23,480.311" fill="#181818" style="stroke:#181818;stroke-width:1;stroke-linejoin:miter;stroke-miterlimit:10;"/><line x1="158.001" y1="592.986" x2="158.001" y2="725.342" style="stroke:#181818;stroke-width:1;"/><line x1="158.001" y1="725.342" x2="269.116" y2="725.342" style="stroke:#181818;stroke-width:1;"/><polygon points="259.116,721.342,269.116,725.342,259.116,729.342,263.116,725.342" fill="#181818" style="stroke:#181818;stroke-width:1;stroke-linejoin:miter;stroke-miterlimit:10;"/><line x1="404.23" y1="707.342" x2="404.23" y2="725.342" style="stroke:#181818;stroke-width:1;"/><line x1="404.23" y1="725.342" x2="293.116" y2="725.342" style="stroke:#181818;stroke-width:1;"/><polygon points="303.116,721.342,293.116,725.342,303.116,729.342,299.116,725.342" fill="#181818" style="stroke:#181818;stroke-width:1;stroke-linejoin:miter;stroke-miterlimit:10;"/><line x1="281.116" y1="417.311" x2="281.116" y2="452.311" style="stroke:#181818;stroke-width:1;"/><polygon points="277.116,442.311,281.116,452.311,285.116,442.311,281.116,446.311" fill="#181818" style="stroke:#181818;stroke-width:1;stroke-linejoin:miter;stroke-miterlimit:10;"/><line x1="676.585" y1="454.311" x2="676.585" y2="489.311" style="stroke:#181818;stroke-width:1;"/><polygon points="672.585,479.311,676.585,489.311,680.585,479.311,676.585,483.311" fill="#181818" style="stroke:#181818;stroke-width:1;stroke-linejoin:miter;stroke-miterlimit:10;"/><line x1="676.585" y1="584.148" x2="676.585" y2="609.407" style="stroke:#181818;stroke-width:1;"/><polygon points="672.585,599.407,676.585,609.407,680.585,599.407,676.585,603.407" fill="#181818" style="stroke:#181818;stroke-width:1;stroke-linejoin:miter;stroke-miterlimit:10;"/><line x1="740.741" y1="572.148" x2="784.487" y2="572.148" style="stroke:#181818;stroke-width:1;"/><polygon points="780.487,617.326,784.487,627.326,788.487,617.326,784.487,621.326" fill="#181818" style="stroke:#181818;stroke-width:1;stroke-linejoin:miter;stroke-miterlimit:10;"/><line x1="784.487" y1="572.148" x2="784.487" y2="682.504" style="stroke:#181818;stroke-width:1;"/><line x1="784.487" y1="682.504" x2="688.585" y2="682.504" style="stroke:#181818;stroke-width:1;"/><polygon points="698.585,678.504,688.585,682.504,698.585,686.504,694.585,682.504" fill="#181818" style="stroke:#181818;stroke-width:1;stroke-linejoin:miter;stroke-miterlimit:10;"/><line x1="676.585" y1="645.245" x2="676.585" y2="670.504" style="stroke:#181818;stroke-width:1;"/><polygon points="672.585,660.504,676.585,670.504,680.585,660.504,676.585,664.504" fill="#181818" style="stroke:#181818;stroke-width:1;stroke-linejoin:miter;stroke-miterlimit:10;"/><line x1="676.585" y1="525.148" x2="676.585" y2="560.148" style="stroke:#181818;stroke-width:1;"/><polygon points="672.585,550.148,676.585,560.148,680.585,550.148,676.585,554.148" fill="#181818" style="stroke:#181818;stroke-width:1;stroke-linejoin:miter;stroke-miterlimit:10;"/><line x1="740.88" y1="370.635" x2="676.585" y2="370.635" style="stroke:#181818;stroke-width:1;"/><line x1="676.585" y1="370.635" x2="676.585" y2="402.635" style="stroke:#181818;stroke-width:1;"/><polygon points="672.585,392.635,676.585,402.635,680.585,392.635,676.585,396.635" fill="#181818" style="stroke:#181818;stroke-width:1;stroke-linejoin:miter;stroke-miterlimit:10;"/><line x1="858.192" y1="370.635" x2="922.487" y2="370.635" style="stroke:#181818;stroke-width:1;"/><line x1="922.487" y1="370.635" x2="922.487" y2="402.635" style="stroke:#181818;stroke-width:1;"/><polygon points="918.487,392.635,922.487,402.635,926.487,392.635,922.487,396.635" fill="#181818" style="stroke:#181818;stroke-width:1;stroke-linejoin:miter;stroke-miterlimit:10;"/><line x1="922.487" y1="438.473" x2="922.487" y2="803.18" style="stroke:#181818;stroke-width:1;"/><line x1="922.487" y1="803.18" x2="811.536" y2="803.18" style="stroke:#181818;stroke-width:1;"/><polygon points="821.536,799.18,811.536,803.18,821.536,807.18,817.536,803.18" fill="#181818" style="stroke:#181818;stroke-width:1;stroke-linejoin:miter;stroke-miterlimit:10;"/><line x1="799.536" y1="331.635" x2="799.536" y2="358.635" style="stroke:#181818;stroke-width:1;"/><polygon points="795.536,348.635,799.536,358.635,803.536,348.635,799.536,352.635" fill="#181818" style="stroke:#181818;stroke-width:1;stroke-linejoin:miter;stroke-miterlimit:10;"/><line x1="281.116" y1="737.342" x2="281.116" y2="835.18" style="stroke:#181818;stroke-width:1;"/><polygon points="277.116,825.18,281.116,835.18,285.116,825.18,281.116,829.18" fill="#181818" style="stroke:#181818;stroke-width:1;stroke-linejoin:miter;stroke-miterlimit:10;"/><line x1="799.536" y1="815.18" x2="799.536" y2="835.18" style="stroke:#181818;stroke-width:1;"/><polygon points="795.536,825.18,799.536,835.18,803.536,825.18,799.536,829.18" fill="#181818" style="stroke:#181818;stroke-width:1;stroke-linejoin:miter;stroke-miterlimit:10;"/><line x1="533.244" y1="178.121" x2="533.244" y2="198.121" style="stroke:#181818;stroke-width:1;"/><polygon points="529.244,188.121,533.244,198.121,537.244,188.121,533.244,192.121" fill="#181818" style="stroke:#181818;stroke-width:1;stroke-linejoin:miter;stroke-miterlimit:10;"/><line x1="533.244" y1="841.18" x2="533.244" y2="861.18" style="stroke:#181818;stroke-width:1;"/><polygon points="529.244,851.18,533.244,861.18,537.244,851.18,533.244,855.18" fill="#181818" style="stroke:#181818;stroke-width:1;stroke-linejoin:miter;stroke-miterlimit:10;"/><line x1="1125.714" y1="338.635" x2="1125.714" y2="348.135" style="stroke:#181818;stroke-width:1;"/><line x1="1125.714" y1="348.135" x2="281.116" y2="348.135" style="stroke:#181818;stroke-width:1;"/><line x1="281.116" y1="348.135" x2="281.116" y2="365.635" style="stroke:#181818;stroke-width:1;"/><polygon points="277.116,355.635,281.116,365.635,285.116,355.635,281.116,359.635" fill="#181818" style="stroke:#181818;stroke-width:1;stroke-linejoin:miter;stroke-miterlimit:10;"/><line x1="1282.01" y1="259.959" x2="1282.01" y2="264.959" style="stroke:#181818;stroke-width:1;"/><line x1="1282.01" y1="264.959" x2="799.536" y2="264.959" style="stroke:#181818;stroke-width:1;"/><line x1="799.536" y1="264.959" x2="799.536" y2="279.959" style="stroke:#181818;stroke-width:1;"/><polygon points="795.536,269.959,799.536,279.959,803.536,269.959,799.536,273.959" fill="#181818" style="stroke:#181818;stroke-width:1;stroke-linejoin:miter;stroke-miterlimit:10;"/><line x1="676.585" y1="694.504" x2="676.585" y2="712.004" style="stroke:#181818;stroke-width:1;"/><line x1="676.585" y1="712.004" x2="1481.205" y2="712.004" style="stroke:#181818;stroke-width:1;"/><line x1="1481.205" y1="712.004" x2="1481.205" y2="729.504" style="stroke:#181818;stroke-width:1;"/><polygon points="1477.205,719.504,1481.205,729.504,1485.205,719.504,1481.205,723.504" fill="#181818" style="stroke:#181818;stroke-width:1;stroke-linejoin:miter;stroke-miterlimit:10;"/><line x1="1481.205" y1="781.18" x2="1481.205" y2="785.18" style="stroke:#181818;stroke-width:1;"/><line x1="1481.205" y1="785.18" x2="769.536" y2="785.18" style="stroke:#181818;stroke-width:1;"/><line x1="769.536" y1="785.18" x2="769.536" y2="803.18" style="stroke:#181818;stroke-width:1;"/><line x1="769.536" y1="803.18" x2="787.536" y2="803.18" style="stroke:#181818;stroke-width:1;"/><polygon points="777.536,799.18,787.536,803.18,777.536,807.18,781.536,803.18" fill="#181818" style="stroke:#181818;stroke-width:1;stroke-linejoin:miter;stroke-miterlimit:10;"/><line x1="281.116" y1="204.121" x2="281.116" y2="208.121" style="stroke:#181818;stroke-width:1;"/><line x1="281.116" y1="208.121" x2="1125.714" y2="208.121" style="stroke:#181818;stroke-width:1;"/><line x1="1125.714" y1="208.121" x2="1125.714" y2="286.959" style="stroke:#181818;stroke-width:1;"/><polygon points="1121.714,276.959,1125.714,286.959,1129.714,276.959,1125.714,280.959" fill="#181818" style="stroke:#181818;stroke-width:1;stroke-linejoin:miter;stroke-miterlimit:10;"/><line x1="799.536" y1="204.121" x2="799.536" y2="208.121" style="stroke:#181818;stroke-width:1;"/><line x1="799.536" y1="208.121" x2="1282.01" y2="208.121" style="stroke:#181818;stroke-width:1;"/><line x1="1282.01" y1="208.121" x2="1282.01" y2="224.121" style="stroke:#181818;stroke-width:1;"/><polygon points="1278.01,214.121,1282.01,224.121,1286.01,214.121,1282.01,218.121" fill="#181818" style="stroke:#181818;stroke-width:1;stroke-linejoin:miter;stroke-miterlimit:10;"/><text x="514.244" y="76.734" fill="#000" font-size="18" textLength="36" font-family="'Microsoft YaHei'">系统</text><text x="1088.714" y="76.734" fill="#000" font-size="18" textLength="72" font-family="'Microsoft YaHei'">预约用户</text><text x="1236.01" y="76.734" fill="#000" font-size="18" textLength="90" font-family="'Microsoft YaHei'">定时调度器</text><text x="1426.205" y="76.734" fill="#000" font-size="18" textLength="108" font-family="'Microsoft YaHei'">消息推送服务</text><?plantuml-src ZLHDRnfN5DtFhtXYbIYAQbU98iMgAhLIrKsxgDH59Mz6CIGepX0Pgcwi2XfZ1WVCEB4z_Y25iG1J6WQS4WpC05B-IkQ-DxFoNyYTkODDd2hjXe_xthltt7FElQbuQZNAUC-2hIOSJzYxS_RpjxSN5vXeJq3jykh0QnMOCzWEmelCxMUvtkVb5fsxkHO-z79RV7SY9H_7bQVoclo4hKHZyg-hgUyIIkf7-KcKHNw8FrXB91En5Fj5_ZuQZypTJJwILnA_nPM7B2Ql9gEIj2x-iOHLMPUIANaj9TttJZR4g25sAtnFlR0BxlGOilKGdjxtz9vewSlAXQs2dORJvv0liiMx3DHDxqM5_Sx2gBRDi2kANjZv9KcA9TOUIuojp_8tkNg-Ze7xK6vIpEqq-BEiPxmLVmmXPqMeQ6HPuUe-p__DIoM-TmXcpHaLXDKJrSoIdsy67pFn_Abh57pg5kumNZMGomlxY9B3-0MS_Va-dH5RVPxEu8zbvLfN6AC2K1XwsIB-XLpRxMHuEOzSyFIfNoyUOpV2y447j0OTVdsJfHv55NO3WpVnraUu49bhTc6yDryFDURxGx1Bo351ObynPpn5Ofn1UucU-P9F9i9woLzLw1aIUtaRpj-0MU2g1iC-USBtYldMVnn5RH6erlWtDBoaYTg8q43jpEtLORi2nzL0Lh8S-uA5P0-AH0T6g6yiwupBC29T_OG-9yG6dj7xJmcv1iBlpjw3ZarEy795ljybgIXfL5c9nwJPj-yU9Z-KuuglEPX7MCFjFWCKzh19udTAREP3zxG1fHtoZ6FXi1cVMALITpid4SHBJeyuWrr4xavpeKXgYxTFYFDvjr_pjMCLkLuDXvCqFjguwcAEcFO1-foueVF_iempUewuOJCBtKsIN8nDPp3oCS_l0PoFA_q3oQvSW6dyzbJDdRxo1on06Dmk2bDtfWQIZxtvk-RBZzIa-wBNSKs36a0VUWSgfEt_ewnhJX0iMxp3eFONjUiTQg3Y9aFMr6z-khrmxxBUJ6XCm_igptJuTjF3KImNiV-POuDG91pbypVKBhl522Z-eFmHBtqaAdMSgO0Lq7Q84c4QGjk4dGEq1IQ2yKkkr_bPZgUjiFyPdiyFJlarVss4kqYlmYGBjGrCx1b3VrK6zD8ImlGmrPSk_OkVBDY0k6OJJpy0?></g></svg>