<svg xmlns="http://www.w3.org/2000/svg" xmlns:xlink="http://www.w3.org/1999/xlink" version="1.1" data-diagram-type="ACTIVITY" style="width:2767px;height:1366px;background:#FFFFFF;" width="2767px" height="1366px" viewBox="0 0 2767 1366" zoomAndPan="magnify" preserveAspectRatio="none" contentStyleType="text/css"><?plantuml 1.2026.8?><defs/><g font-family="sans-serif" lengthAdjust="spacing"><g class="title" data-source-line="1"><text x="1288.421" y="34.813" fill="#000" font-size="14" textLength="188.337" font-weight="700" font-family="'Microsoft YaHei'">活动图 · UC-06 审批预约申请</text></g><rect x="20" y="57.688" width="2720.179" height="23.757" fill="none" style="stroke:none;"/><rect x="20" y="57.688" width="723.34" height="1288.061" fill="#FFF4E6" style="stroke:#FFF4E6;stroke-width:1;"/><ellipse cx="386.312" cy="96.445" rx="10" ry="10" fill="#222" style="stroke:#222;stroke-width:1;"/><rect x="268.312" y="126.445" width="236" height="51.676" fill="#F1F1F1" style="stroke:#181818;stroke-width:0.5;" rx="12.5" ry="12.5"/><text x="278.312" y="149.143" fill="#000" font-size="12" textLength="130.453" font-family="'Microsoft YaHei'">打开"预约审批"待办列表</text><text x="278.312" y="164.98" fill="#000" font-size="12" textLength="216" font-family="'Microsoft YaHei'">（按提交时间升序，冲突申请聚合展示）</text><rect x="340.312" y="255.26" width="92" height="35.838" fill="#F1F1F1" style="stroke:#181818;stroke-width:0.5;" rx="12.5" ry="12.5"/><text x="350.312" y="277.958" fill="#000" font-size="12" textLength="72" font-family="'Microsoft YaHei'">打开一条申请</text><polygon points="350.656,398.612,421.968,398.612,433.968,410.612,421.968,422.612,350.656,422.612,338.656,410.612,350.656,398.612" fill="#F1F1F1" style="stroke:#181818;stroke-width:0.5;stroke-linejoin:miter;stroke-miterlimit:10;"/><text x="390.312" y="434.251" fill="#000" font-size="11" font-family="'Microsoft YaHei'">否</text><text x="350.656" y="414.992" fill="#000" font-size="11" textLength="71.312" font-family="'Microsoft YaHei'">材料是否完整?</text><polygon points="386.312,709.222,398.312,721.222,386.312,733.222,374.312,721.222,386.312,709.222" fill="#F1F1F1" style="stroke:#181818;stroke-width:0.5;stroke-linejoin:miter;stroke-miterlimit:10;"/><polygon points="179,764.366,228.312,764.366,240.312,776.366,228.312,788.366,179,788.366,167,776.366,179,764.366" fill="#F1F1F1" style="stroke:#181818;stroke-width:0.5;stroke-linejoin:miter;stroke-miterlimit:10;"/><text x="207.656" y="800.006" fill="#000" font-size="11" textLength="22" font-family="'Microsoft YaHei'">通过</text><text x="179" y="780.747" fill="#000" font-size="11" textLength="49.312" font-family="'Microsoft YaHei'">审批决定?</text><rect x="53" y="1008.078" width="104" height="35.838" fill="#F1F1F1" style="stroke:#181818;stroke-width:0.5;" rx="12.5" ry="12.5"/><text x="63" y="1030.776" fill="#000" font-size="12" textLength="84" font-family="'Microsoft YaHei'">改选资源或驳回</text><polygon points="493.34,764.366,603.34,764.366,615.34,776.366,603.34,788.366,493.34,788.366,481.34,776.366,493.34,764.366" fill="#F1F1F1" style="stroke:#181818;stroke-width:0.5;stroke-linejoin:miter;stroke-miterlimit:10;"/><text x="493.34" y="780.747" fill="#000" font-size="11" textLength="110" font-family="'Microsoft YaHei'">调整教室或时段后通过</text><text x="615.34" y="773.488" fill="#000" font-size="11" textLength="22" font-family="'Microsoft YaHei'">驳回</text><rect x="484.34" y="808.366" width="128" height="35.838" fill="#F1F1F1" style="stroke:#181818;stroke-width:0.5;" rx="12.5" ry="12.5"/><text x="494.34" y="831.064" fill="#000" font-size="12" textLength="108" font-family="'Microsoft YaHei'">指定替代教室或时段</text><rect x="647.34" y="885.303" width="92" height="35.838" fill="#F1F1F1" style="stroke:#181818;stroke-width:0.5;" rx="12.5" ry="12.5"/><text x="657.34" y="908.001" fill="#000" font-size="12" textLength="72" font-family="'Microsoft YaHei'">填写驳回理由</text><polygon points="345.156,198.121,427.468,198.121,439.468,210.121,427.468,222.121,345.156,222.121,333.156,210.121,345.156,198.121" fill="#F1F1F1" style="stroke:#181818;stroke-width:0.5;stroke-linejoin:miter;stroke-miterlimit:10;"/><text x="390.312" y="233.76" fill="#000" font-size="11" font-family="'Microsoft YaHei'">是</text><text x="345.156" y="214.501" fill="#000" font-size="11" textLength="82.312" font-family="'Microsoft YaHei'">仍有待处理申请?</text><text x="322.156" y="207.242" fill="#000" font-size="11" font-family="'Microsoft YaHei'">否</text><rect x="340.312" y="1267.912" width="92" height="35.838" fill="#F1F1F1" style="stroke:#181818;stroke-width:0.5;" rx="12.5" ry="12.5"/><text x="350.312" y="1290.609" fill="#000" font-size="12" textLength="72" font-family="'Microsoft YaHei'">关闭审批待办</text><ellipse cx="386.312" cy="1334.75" rx="11" ry="11" fill="none" style="stroke:#222;stroke-width:1;"/><ellipse cx="386.312" cy="1334.75" rx="6" ry="6" fill="#222" style="stroke:#222;stroke-width:1;"/><line x1="20" y1="57.688" x2="20" y2="1345.75" style="stroke:#000;stroke-width:1.5;"/><rect x="1236.046" y="311.098" width="248" height="67.514" fill="#F1F1F1" style="stroke:#181818;stroke-width:0.5;" rx="12.5" ry="12.5"/><text x="1246.046" y="333.795" fill="#000" font-size="12" textLength="228" font-family="'Microsoft YaHei'">展示申请详情：教室与时段、用途、人数、</text><text x="1246.046" y="349.633" fill="#000" font-size="12" textLength="192" font-family="'Microsoft YaHei'">申请人信用与历史违约、证明材料、</text><text x="1246.046" y="365.471" fill="#000" font-size="12" textLength="192" font-family="'Microsoft YaHei'">同教室同时段的课表占用与其他申请</text><rect x="1273.458" y="447.871" width="173.176" height="51.676" fill="#F1F1F1" style="stroke:#181818;stroke-width:0.5;" rx="12.5" ry="12.5"/><text x="1283.458" y="470.568" fill="#000" font-size="12" textLength="112.002" font-family="'Microsoft YaHei'">预约状态 = 待补充，</text><text x="1283.458" y="486.406" fill="#000" font-size="12" textLength="153.176" font-family="'Microsoft YaHei'">通知申请人在 24 小时内补交</text><polygon points="1324.39,519.547,1395.702,519.547,1407.702,531.547,1395.702,543.547,1324.39,543.547,1312.39,531.547,1324.39,519.547" fill="#F1F1F1" style="stroke:#181818;stroke-width:0.5;stroke-linejoin:miter;stroke-miterlimit:10;"/><text x="1324.39" y="535.927" fill="#000" font-size="11" textLength="71.312" font-family="'Microsoft YaHei'">是否按时补交?</text><text x="1301.39" y="528.668" fill="#000" font-size="11" font-family="'Microsoft YaHei'">是</text><text x="1407.702" y="528.668" fill="#000" font-size="11" font-family="'Microsoft YaHei'">否</text><rect x="1189.37" y="563.547" width="128" height="35.838" fill="#F1F1F1" style="stroke:#181818;stroke-width:0.5;" rx="12.5" ry="12.5"/><text x="1199.37" y="586.244" fill="#000" font-size="12" textLength="108" font-family="'Microsoft YaHei'">申请回到待审批队列</text><rect x="1402.722" y="563.547" width="128" height="35.838" fill="#F1F1F1" style="stroke:#181818;stroke-width:0.5;" rx="12.5" ry="12.5"/><text x="1412.722" y="586.244" fill="#000" font-size="12" textLength="108" font-family="'Microsoft YaHei'">自动驳回并释放时段</text><polygon points="1360.046,665.222,1372.046,677.222,1360.046,689.222,1348.046,677.222,1360.046,665.222" fill="#F1F1F1" style="stroke:#181818;stroke-width:0.5;stroke-linejoin:miter;stroke-miterlimit:10;"/><rect x="886.702" y="822.885" width="222.629" height="35.838" fill="#F1F1F1" style="stroke:#181818;stroke-width:0.5;" rx="12.5" ry="12.5"/><text x="896.702" y="845.582" fill="#000" font-size="12" textLength="202.629" font-family="'Microsoft YaHei'">并发复核该时段是否被占用（BR-04）</text><polygon points="973.36,893.24,1022.672,893.24,1034.672,905.24,1022.672,917.24,973.36,917.24,961.36,905.24,973.36,893.24" fill="#F1F1F1" style="stroke:#181818;stroke-width:0.5;stroke-linejoin:miter;stroke-miterlimit:10;"/><text x="973.36" y="909.621" fill="#000" font-size="11" textLength="49.312" font-family="'Microsoft YaHei'">存在冲突?</text><text x="950.36" y="902.362" fill="#000" font-size="11" font-family="'Microsoft YaHei'">是</text><text x="1034.672" y="902.362" fill="#000" font-size="11" font-family="'Microsoft YaHei'">否</text><rect x="749.34" y="937.24" width="236" height="35.838" fill="#F1F1F1" style="stroke:#181818;stroke-width:0.5;" rx="12.5" ry="12.5"/><text x="759.34" y="959.938" fill="#000" font-size="12" textLength="216" font-family="'Microsoft YaHei'">审批不生效，申请回到待审批并提示冲突</text><rect x="1026.691" y="937.24" width="204.002" height="35.838" fill="#F1F1F1" style="stroke:#181818;stroke-width:0.5;" rx="12.5" ry="12.5"/><text x="1036.691" y="959.938" fill="#000" font-size="12" textLength="184.002" font-family="'Microsoft YaHei'">预约状态 = 已生效，生成签到凭证</text><polygon points="998.016,1053.916,1010.016,1065.916,998.016,1077.916,986.016,1065.916,998.016,1053.916" fill="#F1F1F1" style="stroke:#181818;stroke-width:0.5;stroke-linejoin:miter;stroke-miterlimit:10;"/><rect x="1430.397" y="878.722" width="183.354" height="35.838" fill="#F1F1F1" style="stroke:#181818;stroke-width:0.5;" rx="12.5" ry="12.5"/><text x="1440.397" y="901.42" fill="#000" font-size="12" textLength="163.354" font-family="'Microsoft YaHei'">按新资源重新执行 UC-04 校验</text><polygon points="1497.418,949.56,1546.73,949.56,1558.73,961.56,1546.73,973.56,1497.418,973.56,1485.418,961.56,1497.418,949.56" fill="#F1F1F1" style="stroke:#181818;stroke-width:0.5;stroke-linejoin:miter;stroke-miterlimit:10;"/><text x="1497.418" y="965.94" fill="#000" font-size="11" textLength="49.312" font-family="'Microsoft YaHei'">校验通过?</text><text x="1474.418" y="958.681" fill="#000" font-size="11" font-family="'Microsoft YaHei'">是</text><text x="1558.73" y="958.681" fill="#000" font-size="11" font-family="'Microsoft YaHei'">否</text><rect x="1357.397" y="993.56" width="92" height="35.838" fill="#F1F1F1" style="stroke:#181818;stroke-width:0.5;" rx="12.5" ry="12.5"/><text x="1367.397" y="1016.258" fill="#000" font-size="12" textLength="72" font-family="'Microsoft YaHei'">按新资源生效</text><rect x="1534.75" y="993.56" width="212" height="35.838" fill="#F1F1F1" style="stroke:#181818;stroke-width:0.5;" rx="12.5" ry="12.5"/><text x="1544.75" y="1016.258" fill="#000" font-size="12" textLength="192" font-family="'Microsoft YaHei'">提示新资源不可用，申请回到待审批</text><polygon points="1522.074,1110.236,1534.074,1122.236,1522.074,1134.236,1510.074,1122.236,1522.074,1110.236" fill="#F1F1F1" style="stroke:#181818;stroke-width:0.5;stroke-linejoin:miter;stroke-miterlimit:10;"/><rect x="1756.75" y="956.141" width="204.002" height="35.838" fill="#F1F1F1" style="stroke:#181818;stroke-width:0.5;" rx="12.5" ry="12.5"/><text x="1766.75" y="978.839" fill="#000" font-size="12" textLength="184.002" font-family="'Microsoft YaHei'">预约状态 = 已驳回，释放时段占用</text><rect x="1266.046" y="1174.236" width="188" height="51.676" fill="#F1F1F1" style="stroke:#181818;stroke-width:0.5;" rx="12.5" ry="12.5"/><text x="1276.046" y="1196.933" fill="#000" font-size="12" textLength="72" font-family="'Microsoft YaHei'">写入审批日志</text><text x="1276.046" y="1212.771" fill="#000" font-size="12" textLength="168" font-family="'Microsoft YaHei'">（审批人、时间、结论、理由）</text><line x1="743.34" y1="57.688" x2="743.34" y2="1345.75" style="stroke:#000;stroke-width:1.5;"/><rect x="2279.105" y="619.385" width="258.705" height="35.838" fill="#F1F1F1" style="stroke:#181818;stroke-width:0.5;" rx="12.5" ry="12.5"/><text x="2289.105" y="642.082" fill="#000" font-size="12" textLength="238.705" font-family="'Microsoft YaHei'">通知申请人"超时未补充，已驳回"（UC-17）</text><rect x="1977.076" y="1008.078" width="246.705" height="35.838" fill="#F1F1F1" style="stroke:#181818;stroke-width:0.5;" rx="12.5" ry="12.5"/><text x="1987.076" y="1030.776" fill="#000" font-size="12" textLength="226.705" font-family="'Microsoft YaHei'">推送"审批通过"（含签到时间窗，UC-17）</text><rect x="2233.781" y="1064.398" width="222.705" height="35.838" fill="#F1F1F1" style="stroke:#181818;stroke-width:0.5;" rx="12.5" ry="12.5"/><text x="2243.781" y="1087.095" fill="#000" font-size="12" textLength="202.705" font-family="'Microsoft YaHei'">通知申请人"已调整并生效"（UC-17）</text><rect x="2547.811" y="1026.979" width="186.705" height="35.838" fill="#F1F1F1" style="stroke:#181818;stroke-width:0.5;" rx="12.5" ry="12.5"/><text x="2557.811" y="1049.677" fill="#000" font-size="12" textLength="166.705" font-family="'Microsoft YaHei'">推送"已驳回"及理由（UC-17）</text><line x1="1964.752" y1="57.688" x2="1964.752" y2="1345.75" style="stroke:#000;stroke-width:1.5;"/><line x1="2738.516" y1="57.688" x2="2738.516" y2="1345.75" style="stroke:#000;stroke-width:1.5;"/><polygon points="1968.752,742.366,1972.752,732.366,1976.752,742.366,1972.752,738.366" fill="#181818" style="stroke:#181818;stroke-width:1;stroke-linejoin:miter;stroke-miterlimit:10;"/><line x1="386.312" y1="106.445" x2="386.312" y2="126.445" style="stroke:#181818;stroke-width:1;"/><polygon points="382.312,116.445,386.312,126.445,390.312,116.445,386.312,120.445" fill="#181818" style="stroke:#181818;stroke-width:1;stroke-linejoin:miter;stroke-miterlimit:10;"/><line x1="338.656" y1="410.612" x2="254.312" y2="410.612" style="stroke:#181818;stroke-width:1;"/><polygon points="250.312,558.547,254.312,568.547,258.312,558.547,254.312,562.547" fill="#181818" style="stroke:#181818;stroke-width:1;stroke-linejoin:miter;stroke-miterlimit:10;"/><line x1="254.312" y1="410.612" x2="254.312" y2="721.222" style="stroke:#181818;stroke-width:1;"/><line x1="254.312" y1="721.222" x2="374.312" y2="721.222" style="stroke:#181818;stroke-width:1;"/><polygon points="364.312,717.222,374.312,721.222,364.312,725.222,368.312,721.222" fill="#181818" style="stroke:#181818;stroke-width:1;stroke-linejoin:miter;stroke-miterlimit:10;"/><line x1="548.34" y1="788.366" x2="548.34" y2="808.366" style="stroke:#181818;stroke-width:1;"/><polygon points="544.34,798.366,548.34,808.366,552.34,798.366,548.34,802.366" fill="#181818" style="stroke:#181818;stroke-width:1;stroke-linejoin:miter;stroke-miterlimit:10;"/><line x1="240.312" y1="776.366" x2="481.34" y2="776.366" style="stroke:#181818;stroke-width:1;"/><polygon points="471.34,772.366,481.34,776.366,471.34,780.366,475.34,776.366" fill="#181818" style="stroke:#181818;stroke-width:1;stroke-linejoin:miter;stroke-miterlimit:10;"/><line x1="386.312" y1="733.222" x2="386.312" y2="749.366" style="stroke:#181818;stroke-width:1;"/><line x1="386.312" y1="749.366" x2="203.656" y2="749.366" style="stroke:#181818;stroke-width:1;"/><line x1="203.656" y1="749.366" x2="203.656" y2="764.366" style="stroke:#181818;stroke-width:1;"/><polygon points="199.656,754.366,203.656,764.366,207.656,754.366,203.656,758.366" fill="#181818" style="stroke:#181818;stroke-width:1;stroke-linejoin:miter;stroke-miterlimit:10;"/><line x1="615.34" y1="776.366" x2="693.34" y2="776.366" style="stroke:#181818;stroke-width:1;"/><line x1="693.34" y1="776.366" x2="693.34" y2="885.303" style="stroke:#181818;stroke-width:1;"/><polygon points="689.34,875.303,693.34,885.303,697.34,875.303,693.34,879.303" fill="#181818" style="stroke:#181818;stroke-width:1;stroke-linejoin:miter;stroke-miterlimit:10;"/><line x1="386.312" y1="222.121" x2="386.312" y2="255.26" style="stroke:#181818;stroke-width:1;"/><polygon points="382.312,245.26,386.312,255.26,390.312,245.26,386.312,249.26" fill="#181818" style="stroke:#181818;stroke-width:1;stroke-linejoin:miter;stroke-miterlimit:10;"/><line x1="333.156" y1="210.121" x2="39" y2="210.121" style="stroke:#181818;stroke-width:1;"/><polygon points="35,734.366,39,744.366,43,734.366,39,738.366" fill="#181818" style="stroke:#181818;stroke-width:1;stroke-linejoin:miter;stroke-miterlimit:10;"/><line x1="39" y1="210.121" x2="39" y2="1247.912" style="stroke:#181818;stroke-width:1;"/><line x1="39" y1="1247.912" x2="386.312" y2="1247.912" style="stroke:#181818;stroke-width:1;"/><line x1="386.312" y1="1247.912" x2="386.312" y2="1267.912" style="stroke:#181818;stroke-width:1;"/><polygon points="382.312,1257.912,386.312,1267.912,390.312,1257.912,386.312,1261.912" fill="#181818" style="stroke:#181818;stroke-width:1;stroke-linejoin:miter;stroke-miterlimit:10;"/><line x1="386.312" y1="178.121" x2="386.312" y2="198.121" style="stroke:#181818;stroke-width:1;"/><polygon points="382.312,188.121,386.312,198.121,390.312,188.121,386.312,192.121" fill="#181818" style="stroke:#181818;stroke-width:1;stroke-linejoin:miter;stroke-miterlimit:10;"/><line x1="386.312" y1="1303.75" x2="386.312" y2="1323.75" style="stroke:#181818;stroke-width:1;"/><polygon points="382.312,1313.75,386.312,1323.75,390.312,1313.75,386.312,1317.75" fill="#181818" style="stroke:#181818;stroke-width:1;stroke-linejoin:miter;stroke-miterlimit:10;"/><line x1="1312.39" y1="531.547" x2="1253.37" y2="531.547" style="stroke:#181818;stroke-width:1;"/><line x1="1253.37" y1="531.547" x2="1253.37" y2="563.547" style="stroke:#181818;stroke-width:1;"/><polygon points="1249.37,553.547,1253.37,563.547,1257.37,553.547,1253.37,557.547" fill="#181818" style="stroke:#181818;stroke-width:1;stroke-linejoin:miter;stroke-miterlimit:10;"/><line x1="1407.702" y1="531.547" x2="1466.722" y2="531.547" style="stroke:#181818;stroke-width:1;"/><line x1="1466.722" y1="531.547" x2="1466.722" y2="563.547" style="stroke:#181818;stroke-width:1;"/><polygon points="1462.722,553.547,1466.722,563.547,1470.722,553.547,1466.722,557.547" fill="#181818" style="stroke:#181818;stroke-width:1;stroke-linejoin:miter;stroke-miterlimit:10;"/><line x1="1253.37" y1="599.385" x2="1253.37" y2="677.222" style="stroke:#181818;stroke-width:1;"/><line x1="1253.37" y1="677.222" x2="1348.046" y2="677.222" style="stroke:#181818;stroke-width:1;"/><polygon points="1338.046,673.222,1348.046,677.222,1338.046,681.222,1342.046,677.222" fill="#181818" style="stroke:#181818;stroke-width:1;stroke-linejoin:miter;stroke-miterlimit:10;"/><line x1="1360.046" y1="499.547" x2="1360.046" y2="519.547" style="stroke:#181818;stroke-width:1;"/><polygon points="1356.046,509.547,1360.046,519.547,1364.046,509.547,1360.046,513.547" fill="#181818" style="stroke:#181818;stroke-width:1;stroke-linejoin:miter;stroke-miterlimit:10;"/><line x1="961.36" y1="905.24" x2="867.34" y2="905.24" style="stroke:#181818;stroke-width:1;"/><line x1="867.34" y1="905.24" x2="867.34" y2="937.24" style="stroke:#181818;stroke-width:1;"/><polygon points="863.34,927.24,867.34,937.24,871.34,927.24,867.34,931.24" fill="#181818" style="stroke:#181818;stroke-width:1;stroke-linejoin:miter;stroke-miterlimit:10;"/><line x1="1034.672" y1="905.24" x2="1128.692" y2="905.24" style="stroke:#181818;stroke-width:1;"/><line x1="1128.692" y1="905.24" x2="1128.692" y2="937.24" style="stroke:#181818;stroke-width:1;"/><polygon points="1124.692,927.24,1128.692,937.24,1132.692,927.24,1128.692,931.24" fill="#181818" style="stroke:#181818;stroke-width:1;stroke-linejoin:miter;stroke-miterlimit:10;"/><line x1="998.016" y1="858.722" x2="998.016" y2="893.24" style="stroke:#181818;stroke-width:1;"/><polygon points="994.016,883.24,998.016,893.24,1002.016,883.24,998.016,887.24" fill="#181818" style="stroke:#181818;stroke-width:1;stroke-linejoin:miter;stroke-miterlimit:10;"/><line x1="1485.418" y1="961.56" x2="1403.397" y2="961.56" style="stroke:#181818;stroke-width:1;"/><line x1="1403.397" y1="961.56" x2="1403.397" y2="993.56" style="stroke:#181818;stroke-width:1;"/><polygon points="1399.397,983.56,1403.397,993.56,1407.397,983.56,1403.397,987.56" fill="#181818" style="stroke:#181818;stroke-width:1;stroke-linejoin:miter;stroke-miterlimit:10;"/><line x1="1558.73" y1="961.56" x2="1640.75" y2="961.56" style="stroke:#181818;stroke-width:1;"/><line x1="1640.75" y1="961.56" x2="1640.75" y2="993.56" style="stroke:#181818;stroke-width:1;"/><polygon points="1636.75,983.56,1640.75,993.56,1644.75,983.56,1640.75,987.56" fill="#181818" style="stroke:#181818;stroke-width:1;stroke-linejoin:miter;stroke-miterlimit:10;"/><line x1="1640.75" y1="1029.398" x2="1640.75" y2="1122.236" style="stroke:#181818;stroke-width:1;"/><line x1="1640.75" y1="1122.236" x2="1534.074" y2="1122.236" style="stroke:#181818;stroke-width:1;"/><polygon points="1544.074,1118.236,1534.074,1122.236,1544.074,1126.236,1540.074,1122.236" fill="#181818" style="stroke:#181818;stroke-width:1;stroke-linejoin:miter;stroke-miterlimit:10;"/><line x1="1522.074" y1="914.56" x2="1522.074" y2="949.56" style="stroke:#181818;stroke-width:1;"/><polygon points="1518.074,939.56,1522.074,949.56,1526.074,939.56,1522.074,943.56" fill="#181818" style="stroke:#181818;stroke-width:1;stroke-linejoin:miter;stroke-miterlimit:10;"/><line x1="998.016" y1="1077.916" x2="998.016" y2="1154.236" style="stroke:#181818;stroke-width:1;"/><polygon points="994.016,1144.236,998.016,1154.236,1002.016,1144.236,998.016,1148.236" fill="#181818" style="stroke:#181818;stroke-width:1;stroke-linejoin:miter;stroke-miterlimit:10;"/><line x1="1522.074" y1="1134.236" x2="1522.074" y2="1154.236" style="stroke:#181818;stroke-width:1;"/><polygon points="1518.074,1144.236,1522.074,1154.236,1526.074,1144.236,1522.074,1148.236" fill="#181818" style="stroke:#181818;stroke-width:1;stroke-linejoin:miter;stroke-miterlimit:10;"/><line x1="998.016" y1="1154.236" x2="1960.752" y2="1154.236" style="stroke:#181818;stroke-width:1;"/><line x1="2641.163" y1="1062.817" x2="2641.163" y2="1154.236" style="stroke:#181818;stroke-width:1;"/><polygon points="2637.163,1144.236,2641.163,1154.236,2645.163,1144.236,2641.163,1148.236" fill="#181818" style="stroke:#181818;stroke-width:1;stroke-linejoin:miter;stroke-miterlimit:10;"/><line x1="1731.076" y1="1154.236" x2="2641.163" y2="1154.236" style="stroke:#181818;stroke-width:1;"/><line x1="386.312" y1="291.098" x2="386.312" y2="296.098" style="stroke:#181818;stroke-width:1;"/><line x1="386.312" y1="296.098" x2="1360.046" y2="296.098" style="stroke:#181818;stroke-width:1;"/><line x1="1360.046" y1="296.098" x2="1360.046" y2="311.098" style="stroke:#181818;stroke-width:1;"/><polygon points="1356.046,301.098,1360.046,311.098,1364.046,301.098,1360.046,305.098" fill="#181818" style="stroke:#181818;stroke-width:1;stroke-linejoin:miter;stroke-miterlimit:10;"/><line x1="1466.722" y1="599.385" x2="1466.722" y2="604.385" style="stroke:#181818;stroke-width:1;"/><line x1="1466.722" y1="604.385" x2="2408.458" y2="604.385" style="stroke:#181818;stroke-width:1;"/><line x1="2408.458" y1="604.385" x2="2408.458" y2="619.385" style="stroke:#181818;stroke-width:1;"/><polygon points="2404.458,609.385,2408.458,619.385,2412.458,609.385,2408.458,613.385" fill="#181818" style="stroke:#181818;stroke-width:1;stroke-linejoin:miter;stroke-miterlimit:10;"/><line x1="2408.458" y1="655.222" x2="2408.458" y2="677.222" style="stroke:#181818;stroke-width:1;"/><line x1="2408.458" y1="677.222" x2="1372.046" y2="677.222" style="stroke:#181818;stroke-width:1;"/><polygon points="1382.046,673.222,1372.046,677.222,1382.046,681.222,1378.046,677.222" fill="#181818" style="stroke:#181818;stroke-width:1;stroke-linejoin:miter;stroke-miterlimit:10;"/><line x1="386.312" y1="422.612" x2="386.312" y2="435.241" style="stroke:#181818;stroke-width:1;"/><line x1="386.312" y1="435.241" x2="1360.046" y2="435.241" style="stroke:#181818;stroke-width:1;"/><line x1="1360.046" y1="435.241" x2="1360.046" y2="447.871" style="stroke:#181818;stroke-width:1;"/><polygon points="1356.046,437.871,1360.046,447.871,1364.046,437.871,1360.046,441.871" fill="#181818" style="stroke:#181818;stroke-width:1;stroke-linejoin:miter;stroke-miterlimit:10;"/><line x1="1360.046" y1="689.222" x2="1360.046" y2="696.593" style="stroke:#181818;stroke-width:1;"/><line x1="1360.046" y1="696.593" x2="386.312" y2="696.593" style="stroke:#181818;stroke-width:1;"/><line x1="386.312" y1="696.593" x2="386.312" y2="709.222" style="stroke:#181818;stroke-width:1;"/><polygon points="382.312,699.222,386.312,709.222,390.312,699.222,386.312,703.222" fill="#181818" style="stroke:#181818;stroke-width:1;stroke-linejoin:miter;stroke-miterlimit:10;"/><line x1="1360.046" y1="378.612" x2="1360.046" y2="383.612" style="stroke:#181818;stroke-width:1;"/><line x1="1360.046" y1="383.612" x2="386.312" y2="383.612" style="stroke:#181818;stroke-width:1;"/><line x1="386.312" y1="383.612" x2="386.312" y2="398.612" style="stroke:#181818;stroke-width:1;"/><polygon points="382.312,388.612,386.312,398.612,390.312,388.612,386.312,392.612" fill="#181818" style="stroke:#181818;stroke-width:1;stroke-linejoin:miter;stroke-miterlimit:10;"/><line x1="867.34" y1="973.078" x2="867.34" y2="990.578" style="stroke:#181818;stroke-width:1;"/><line x1="867.34" y1="990.578" x2="105" y2="990.578" style="stroke:#181818;stroke-width:1;"/><line x1="105" y1="990.578" x2="105" y2="1008.078" style="stroke:#181818;stroke-width:1;"/><polygon points="101,998.078,105,1008.078,109,998.078,105,1002.078" fill="#181818" style="stroke:#181818;stroke-width:1;stroke-linejoin:miter;stroke-miterlimit:10;"/><line x1="1128.692" y1="973.078" x2="1128.692" y2="990.578" style="stroke:#181818;stroke-width:1;"/><line x1="1128.692" y1="990.578" x2="2100.428" y2="990.578" style="stroke:#181818;stroke-width:1;"/><line x1="2100.428" y1="990.578" x2="2100.428" y2="1008.078" style="stroke:#181818;stroke-width:1;"/><polygon points="2096.428,998.078,2100.428,1008.078,2104.428,998.078,2100.428,1002.078" fill="#181818" style="stroke:#181818;stroke-width:1;stroke-linejoin:miter;stroke-miterlimit:10;"/><line x1="105" y1="1043.916" x2="105" y2="1065.916" style="stroke:#181818;stroke-width:1;"/><line x1="105" y1="1065.916" x2="986.016" y2="1065.916" style="stroke:#181818;stroke-width:1;"/><polygon points="976.016,1061.916,986.016,1065.916,976.016,1069.916,980.016,1065.916" fill="#181818" style="stroke:#181818;stroke-width:1;stroke-linejoin:miter;stroke-miterlimit:10;"/><line x1="2100.428" y1="1043.916" x2="2100.428" y2="1065.916" style="stroke:#181818;stroke-width:1;"/><line x1="2100.428" y1="1065.916" x2="1010.016" y2="1065.916" style="stroke:#181818;stroke-width:1;"/><polygon points="1020.016,1061.916,1010.016,1065.916,1020.016,1069.916,1016.016,1065.916" fill="#181818" style="stroke:#181818;stroke-width:1;stroke-linejoin:miter;stroke-miterlimit:10;"/><line x1="548.34" y1="844.204" x2="548.34" y2="861.704" style="stroke:#181818;stroke-width:1;"/><line x1="548.34" y1="861.704" x2="1522.074" y2="861.704" style="stroke:#181818;stroke-width:1;"/><line x1="1522.074" y1="861.704" x2="1522.074" y2="878.722" style="stroke:#181818;stroke-width:1;"/><polygon points="1518.074,868.722,1522.074,878.722,1526.074,868.722,1522.074,872.722" fill="#181818" style="stroke:#181818;stroke-width:1;stroke-linejoin:miter;stroke-miterlimit:10;"/><line x1="1403.397" y1="1029.398" x2="1403.397" y2="1046.898" style="stroke:#181818;stroke-width:1;"/><line x1="1403.397" y1="1046.898" x2="2345.133" y2="1046.898" style="stroke:#181818;stroke-width:1;"/><line x1="2345.133" y1="1046.898" x2="2345.133" y2="1064.398" style="stroke:#181818;stroke-width:1;"/><polygon points="2341.133,1054.398,2345.133,1064.398,2349.133,1054.398,2345.133,1058.398" fill="#181818" style="stroke:#181818;stroke-width:1;stroke-linejoin:miter;stroke-miterlimit:10;"/><line x1="2345.133" y1="1100.236" x2="2345.133" y2="1104.236" style="stroke:#181818;stroke-width:1;"/><line x1="2345.133" y1="1104.236" x2="1492.074" y2="1104.236" style="stroke:#181818;stroke-width:1;"/><line x1="1492.074" y1="1104.236" x2="1492.074" y2="1122.236" style="stroke:#181818;stroke-width:1;"/><line x1="1492.074" y1="1122.236" x2="1510.074" y2="1122.236" style="stroke:#181818;stroke-width:1;"/><polygon points="1500.074,1118.236,1510.074,1122.236,1500.074,1126.236,1504.074,1122.236" fill="#181818" style="stroke:#181818;stroke-width:1;stroke-linejoin:miter;stroke-miterlimit:10;"/><line x1="693.34" y1="921.141" x2="693.34" y2="938.641" style="stroke:#181818;stroke-width:1;"/><line x1="693.34" y1="938.641" x2="1858.751" y2="938.641" style="stroke:#181818;stroke-width:1;"/><line x1="1858.751" y1="938.641" x2="1858.751" y2="956.141" style="stroke:#181818;stroke-width:1;"/><polygon points="1854.751,946.141,1858.751,956.141,1862.751,946.141,1858.751,950.141" fill="#181818" style="stroke:#181818;stroke-width:1;stroke-linejoin:miter;stroke-miterlimit:10;"/><line x1="1858.751" y1="991.979" x2="1858.751" y2="1009.479" style="stroke:#181818;stroke-width:1;"/><line x1="1858.751" y1="1009.479" x2="2641.163" y2="1009.479" style="stroke:#181818;stroke-width:1;"/><line x1="2641.163" y1="1009.479" x2="2641.163" y2="1026.979" style="stroke:#181818;stroke-width:1;"/><polygon points="2637.163,1016.979,2641.163,1026.979,2645.163,1016.979,2641.163,1020.979" fill="#181818" style="stroke:#181818;stroke-width:1;stroke-linejoin:miter;stroke-miterlimit:10;"/><line x1="203.656" y1="788.366" x2="203.656" y2="792.366" style="stroke:#181818;stroke-width:1;"/><line x1="203.656" y1="792.366" x2="998.016" y2="792.366" style="stroke:#181818;stroke-width:1;"/><line x1="998.016" y1="792.366" x2="998.016" y2="822.885" style="stroke:#181818;stroke-width:1;"/><polygon points="994.016,812.885,998.016,822.885,1002.016,812.885,998.016,816.885" fill="#181818" style="stroke:#181818;stroke-width:1;stroke-linejoin:miter;stroke-miterlimit:10;"/><line x1="386.312" y1="1154.236" x2="386.312" y2="1159.236" style="stroke:#181818;stroke-width:1;"/><line x1="386.312" y1="1159.236" x2="1360.046" y2="1159.236" style="stroke:#181818;stroke-width:1;"/><line x1="1360.046" y1="1159.236" x2="1360.046" y2="1174.236" style="stroke:#181818;stroke-width:1;"/><polygon points="1356.046,1164.236,1360.046,1174.236,1364.046,1164.236,1360.046,1168.236" fill="#181818" style="stroke:#181818;stroke-width:1;stroke-linejoin:miter;stroke-miterlimit:10;"/><line x1="1360.046" y1="1225.912" x2="1360.046" y2="1235.912" style="stroke:#181818;stroke-width:1;"/><line x1="1360.046" y1="1235.912" x2="1972.752" y2="1235.912" style="stroke:#181818;stroke-width:1;"/><line x1="1972.752" y1="210.121" x2="1972.752" y2="1235.912" style="stroke:#181818;stroke-width:1;"/><line x1="1972.752" y1="210.121" x2="439.468" y2="210.121" style="stroke:#181818;stroke-width:1;"/><polygon points="449.468,206.121,439.468,210.121,449.468,214.121,445.468,210.121" fill="#181818" style="stroke:#181818;stroke-width:1;stroke-linejoin:miter;stroke-miterlimit:10;"/><text x="336.67" y="76.734" fill="#000" font-size="18" textLength="90" font-family="'Microsoft YaHei'">教室管理员</text><text x="1336.046" y="76.734" fill="#000" font-size="18" textLength="36" font-family="'Microsoft YaHei'">系统</text><text x="2297.634" y="76.734" fill="#000" font-size="18" textLength="108" font-family="'Microsoft YaHei'">消息推送服务</text><?plantuml-src dLNFRn9R5DxFNt63cxemKTFuaX9Zeh5neukNlCLBkY6lO2TMQ0h6JHSGoy_mOuoqKDfAHw4YJG5BfUr08F5VSSwTcLN_XNVcdkc81NtahJgztFkTxtpVT-wDo95LF-EdVSWqO7V8lfsnlnxTkdsFGKlbwGlhmwQX7Hh5hja-ay8lvE2QRzttaYtx0xvNgv75K33opFVIppnFvN_MG-5G8CB-zZtnovwnlU4LttBejHnypWA-rR1VaZPkB2ukpZ--jy6tTg1LCrggeIJWRNb32aTywn5fWQVVmI3geTh4mmF3E6JUGwfagesbuEKWnRDfNb1qhSPBFQjq2haaQ8NBGHOI9qOpHepDM0MK57pPCchQvI3jbQJNApAsEwVtStmlRMFMDh4uxNvmaybXDiVBxPiIOvFi67EOwUTHlg_I8Q-zrUZsZNvLxA1YJlds8NyJlnnK24e_poDNtlhwFOhy6bQqY1-wfl6j3dui1UaGBkWZ16_WTiWde71YZlPH1znYjcEydEVx2j_U4IT0oHAq_I6WZSgcsHwYHf0xS33YFRs_FKPsIbzo0DiMiDWyAAWvufwY7f4LVv3DuOgjo4-DOgjEDZ8z7esn-mpLDDKwnB7Xx5BGYbQCQjrj2VOQxEuyWqu1UKB2tedMUGMGg2xgsfwMUlIRMztnOw8-CY1usCLST6mpARBbAiQ4eFqOk37-amXcied1jpvtRP2BdfNCyEAGfFHU7U6z58-rUHuTY_6z76HKz_YrBZrcBsuVtckwIi3P2Q5xCBCuMNV-444Kv8BBSa2w-liRQwWlI7IXLN5bmTBcA3dD5-m32c-XbkC7vsQxJjsGmEQ78me6adduvwtRyouPKUUuZ3xH0CqYF_7IptD6iSgtKjZjL4EG3qugJWKX_z1ribi1ouiNLZHjVjtaci9JsoJVZ7vUp-JPoHYtAayfnl7GvfOync6QnM5Qz3ZH4fhRJe9oH4Xq-nZD4bRuXRt8sLRNxBp1eQAciIso1PJyJqPErMI1PvDeFTyTwVsFrm2yKm9WZz5sXmIqaZdyvkbFffeLD_iyumUgrSoEpPxudsZCOliuFAdxVqO5hI55C1w4CcL2_ijkofNB1gC8XRQ8z_GeJZg3WoJozLlzGJs2n0vj5C_55-yCz-7Lv2EPyNk51j01-9LWRkxSwmCA6IfzJQKVjyVuAvJOWNYTUkQbEenAuirq1bRJyFMWuDfFKV-TsR9Nhk0H5a6TbrA8BqtgiW3nhbKwTYPSFCvUVBz3Q_y2?></g></svg>